<svg version="1" xmlns="http://www.w3.org/2000/svg" width="374.667" height="374.667" viewBox="0 0 281.000000 281.000000"><path d="M82 .6c0 .5 10.4 11.2 23 23.7L128.1 47l59.6-.2 59.7-.3.8-3.5c1.5-6.5 1.1-27-.7-34.8L245.8 1h-40.6c-22.4 0-59.3-.3-81.9-.7C97.5-.1 82 0 82 .6zM67.3 9.7c-1.6 7.3-.9 32.3 1.1 39.8 2.4 9.4 10.3 25.8 15.7 32.5 2.4 3.1 20.1 21.1 39.3 40 21.6 21.4 36.4 36.8 38.8 40.5 12.4 19 9.7 44.4-6.3 60.4-8.1 8.2-18.6 12.9-30.4 13.8-31.5 2.4-56.9-26.7-50.4-57.9 3.7-17.9 19.1-33.3 36.7-36.8 3.1-.7 6.8-1.4 8.1-1.6 2.2-.5.6-2.3-15.5-18.5-9.8-9.8-18.4-17.9-19-17.9-3.1 0-22.6 14.5-30 22.2-34 36.1-33 92.8 2.5 127.8 17.7 17.5 38.9 26 64.9 26 18.9 0 35.4-5 51.2-15.5 9.2-6.1 22.5-20.3 27.9-29.8 12.1-21.5 15.2-48.8 8-72.2-2.4-8.2-8.6-21-12.9-26.9C194.6 132.4 69.2 6 68.3 6c-.1 0-.6 1.7-1 3.7zM166.8 86l26.2 26 5.2-2.6c19.5-9.8 39.2-30.8 44.2-47.2l.7-2.2H140.6l26.2 26z"/><path d="M138.5 169.6c-8.8 6.3-13.9 9.3-15.8 9.4-6.1.1-10.6 4.4-10.7 10.2 0 4.9 1.6 8.1 5 10.1 7.5 4.5 17-1.3 17-10.4 0-1.1 4.1-8 9-15.1 5-7.2 9-13.2 8.8-13.3-.2-.2-6.1 3.9-13.3 9.1z"/></svg>